<svg width="48" height="48" viewBox="0 0 48 48" fill="none" xmlns="http://www.w3.org/2000/svg">
<path d="M43.0598 21.74L40.0198 18.7C39.4998 18.18 39.0798 17.16 39.0798 16.44V12.12C39.0798 10.36 37.6398 8.92001 35.8798 8.92001H31.5798C30.8598 8.92001 29.8398 8.50001 29.3198 7.98001L26.2798 4.94001C25.0398 3.70001 22.9998 3.70001 21.7598 4.94001L18.6798 7.98001C18.1798 8.50001 17.1598 8.92001 16.4198 8.92001H12.1198C10.3598 8.92001 8.91977 10.36 8.91977 12.12V16.42C8.91977 17.14 8.49977 18.16 7.97977 18.68L4.93977 21.72C3.69977 22.96 3.69977 25 4.93977 26.24L7.97977 29.28C8.49977 29.8 8.91977 30.82 8.91977 31.54V35.84C8.91977 37.6 10.3598 39.04 12.1198 39.04H16.4198C17.1398 39.04 18.1598 39.46 18.6798 39.98L21.7198 43.02C22.9598 44.26 24.9998 44.26 26.2398 43.02L29.2798 39.98C29.7998 39.46 30.8198 39.04 31.5398 39.04H35.8398C37.5998 39.04 39.0398 37.6 39.0398 35.84V31.54C39.0398 30.82 39.4598 29.8 39.9798 29.28L43.0198 26.24C44.3198 25.02 44.3198 22.98 43.0598 21.74ZM15.9998 18C15.9998 16.9 16.8998 16 17.9998 16C19.0998 16 19.9998 16.9 19.9998 18C19.9998 19.1 19.1198 20 17.9998 20C16.8998 20 15.9998 19.1 15.9998 18ZM19.0598 31.06C18.7598 31.36 18.3798 31.5 17.9998 31.5C17.6198 31.5 17.2398 31.36 16.9398 31.06C16.3598 30.48 16.3598 29.52 16.9398 28.94L28.9398 16.94C29.5198 16.36 30.4798 16.36 31.0598 16.94C31.6398 17.52 31.6398 18.48 31.0598 19.06L19.0598 31.06ZM29.9998 32C28.8798 32 27.9798 31.1 27.9798 30C27.9798 28.9 28.8798 28 29.9798 28C31.0798 28 31.9798 28.9 31.9798 30C31.9798 31.1 31.0998 32 29.9998 32Z" fill="#FAC520"/>
</svg>
