<svg width="48" height="48" viewBox="0 0 48 48" fill="none" xmlns="http://www.w3.org/2000/svg">
<path d="M33.5 7.12V4C33.5 3.18 32.82 2.5 32 2.5C31.18 2.5 30.5 3.18 30.5 4V7H17.5V4C17.5 3.18 16.82 2.5 16 2.5C15.18 2.5 14.5 3.18 14.5 4V7.12C9.09997 7.62 6.47997 10.84 6.07997 15.62C6.03997 16.2 6.51997 16.68 7.07997 16.68H40.92C41.5 16.68 41.98 16.18 41.92 15.62C41.52 10.84 38.9 7.62 33.5 7.12Z" fill="#FAC520"/>
<path d="M40 19.6799H8C6.9 19.6799 6 20.5799 6 21.6799V33.9999C6 39.9999 9 43.9999 16 43.9999H32C39 43.9999 42 39.9999 42 33.9999V21.6799C42 20.5799 41.1 19.6799 40 19.6799ZM18.42 36.4199C18.32 36.4999 18.22 36.5999 18.12 36.6599C18 36.7399 17.88 36.7999 17.76 36.8399C17.64 36.8999 17.52 36.9399 17.4 36.9599C17.26 36.9799 17.14 36.9999 17 36.9999C16.74 36.9999 16.48 36.9399 16.24 36.8399C15.98 36.7399 15.78 36.5999 15.58 36.4199C15.22 36.0399 15 35.5199 15 34.9999C15 34.4799 15.22 33.9599 15.58 33.5799C15.78 33.3999 15.98 33.2599 16.24 33.1599C16.6 32.9999 17 32.9599 17.4 33.0399C17.52 33.0599 17.64 33.0999 17.76 33.1599C17.88 33.1999 18 33.2599 18.12 33.3399C18.22 33.4199 18.32 33.4999 18.42 33.5799C18.78 33.9599 19 34.4799 19 34.9999C19 35.5199 18.78 36.0399 18.42 36.4199ZM18.42 29.4199C18.04 29.7799 17.52 29.9999 17 29.9999C16.48 29.9999 15.96 29.7799 15.58 29.4199C15.22 29.0399 15 28.5199 15 27.9999C15 27.4799 15.22 26.9599 15.58 26.5799C16.14 26.0199 17.02 25.8399 17.76 26.1599C18.02 26.2599 18.24 26.3999 18.42 26.5799C18.78 26.9599 19 27.4799 19 27.9999C19 28.5199 18.78 29.0399 18.42 29.4199ZM25.42 36.4199C25.04 36.7799 24.52 36.9999 24 36.9999C23.48 36.9999 22.96 36.7799 22.58 36.4199C22.22 36.0399 22 35.5199 22 34.9999C22 34.4799 22.22 33.9599 22.58 33.5799C23.32 32.8399 24.68 32.8399 25.42 33.5799C25.78 33.9599 26 34.4799 26 34.9999C26 35.5199 25.78 36.0399 25.42 36.4199ZM25.42 29.4199C25.32 29.4999 25.22 29.5799 25.12 29.6599C25 29.7399 24.88 29.7999 24.76 29.8399C24.64 29.8999 24.52 29.9399 24.4 29.9599C24.26 29.9799 24.14 29.9999 24 29.9999C23.48 29.9999 22.96 29.7799 22.58 29.4199C22.22 29.0399 22 28.5199 22 27.9999C22 27.4799 22.22 26.9599 22.58 26.5799C22.76 26.3999 22.98 26.2599 23.24 26.1599C23.98 25.8399 24.86 26.0199 25.42 26.5799C25.78 26.9599 26 27.4799 26 27.9999C26 28.5199 25.78 29.0399 25.42 29.4199ZM32.42 36.4199C32.04 36.7799 31.52 36.9999 31 36.9999C30.48 36.9999 29.96 36.7799 29.58 36.4199C29.22 36.0399 29 35.5199 29 34.9999C29 34.4799 29.22 33.9599 29.58 33.5799C30.32 32.8399 31.68 32.8399 32.42 33.5799C32.78 33.9599 33 34.4799 33 34.9999C33 35.5199 32.78 36.0399 32.42 36.4199ZM32.42 29.4199C32.32 29.4999 32.22 29.5799 32.12 29.6599C32 29.7399 31.88 29.7999 31.76 29.8399C31.64 29.8999 31.52 29.9399 31.4 29.9599C31.26 29.9799 31.12 29.9999 31 29.9999C30.48 29.9999 29.96 29.7799 29.58 29.4199C29.22 29.0399 29 28.5199 29 27.9999C29 27.4799 29.22 26.9599 29.58 26.5799C29.78 26.3999 29.98 26.2599 30.24 26.1599C30.6 25.9999 31 25.9599 31.4 26.0399C31.52 26.0599 31.64 26.0999 31.76 26.1599C31.88 26.1999 32 26.2599 32.12 26.3399C32.22 26.4199 32.32 26.4999 32.42 26.5799C32.78 26.9599 33 27.4799 33 27.9999C33 28.5199 32.78 29.0399 32.42 29.4199Z" fill="#FAC520"/>
</svg>
