<svg width="48" height="48" viewBox="0 0 48 48" fill="none" xmlns="http://www.w3.org/2000/svg">
<path d="M32.38 4H15.62C8.34 4 4 8.34 4 15.62V32.38C4 39.66 8.34 44 15.62 44H32.38C39.66 44 44 39.66 44 32.38V15.62C44 8.34 39.66 4 32.38 4ZM15.5 27.2C15.5 28.02 14.82 28.7 14 28.7C13.18 28.7 12.5 28.02 12.5 27.2V20.8C12.5 19.98 13.18 19.3 14 19.3C14.82 19.3 15.5 19.98 15.5 20.8V27.2ZM25.5 30.68C25.5 31.5 24.82 32.18 24 32.18C23.18 32.18 22.5 31.5 22.5 30.68V17.32C22.5 16.5 23.18 15.82 24 15.82C24.82 15.82 25.5 16.5 25.5 17.32V30.68ZM35.5 27.2C35.5 28.02 34.82 28.7 34 28.7C33.18 28.7 32.5 28.02 32.5 27.2V20.8C32.5 19.98 33.18 19.3 34 19.3C34.82 19.3 35.5 19.98 35.5 20.8V27.2Z" fill="#FAC520"/>
</svg>
