<svg width="48" height="48" viewBox="0 0 48 48" fill="none" xmlns="http://www.w3.org/2000/svg">
<path d="M44.7198 16.54L44.1398 11C43.2998 4.96 40.5598 2.5 34.6998 2.5H29.9798H27.0198H20.9398H17.9798H13.1798C7.29979 2.5 4.57979 4.96 3.71979 11.06L3.17979 16.56C2.97979 18.7 3.55979 20.78 4.81979 22.4C6.33979 24.38 8.67979 25.5 11.2798 25.5C13.7998 25.5 16.2198 24.24 17.7398 22.22C19.0998 24.24 21.4198 25.5 23.9998 25.5C26.5798 25.5 28.8398 24.3 30.2198 22.3C31.7598 24.28 34.1398 25.5 36.6198 25.5C39.2798 25.5 41.6798 24.32 43.1798 22.24C44.3798 20.64 44.9198 18.62 44.7198 16.54Z" fill="#FAC520"/>
<path d="M22.7002 33.32C20.1602 33.58 18.2402 35.74 18.2402 38.3V43.78C18.2402 44.32 18.6802 44.76 19.2202 44.76H28.7602C29.3002 44.76 29.7402 44.32 29.7402 43.78V39C29.7602 34.82 27.3002 32.84 22.7002 33.32Z" fill="#FAC520"/>
<path d="M42.7398 28.8V34.76C42.7398 40.28 38.2598 44.76 32.7398 44.76C32.1998 44.76 31.7598 44.32 31.7598 43.78V39C31.7598 36.44 30.9798 34.44 29.4598 33.08C28.1198 31.86 26.2998 31.26 24.0398 31.26C23.5398 31.26 23.0398 31.28 22.4998 31.34C18.9398 31.7 16.2398 34.7 16.2398 38.3V43.78C16.2398 44.32 15.7998 44.76 15.2598 44.76C9.73977 44.76 5.25977 40.28 5.25977 34.76V28.84C5.25977 27.44 6.63977 26.5 7.93977 26.96C8.47977 27.14 9.01977 27.28 9.57977 27.36C9.81977 27.4 10.0798 27.44 10.3198 27.44C10.6398 27.48 10.9598 27.5 11.2798 27.5C13.5998 27.5 15.8798 26.64 17.6798 25.16C19.3998 26.64 21.6398 27.5 23.9998 27.5C26.3798 27.5 28.5798 26.68 30.2998 25.2C32.0998 26.66 34.3398 27.5 36.6198 27.5C36.9798 27.5 37.3398 27.48 37.6798 27.44C37.9198 27.42 38.1398 27.4 38.3598 27.36C38.9798 27.28 39.5398 27.1 40.0998 26.92C41.3998 26.48 42.7398 27.44 42.7398 28.8Z" fill="#FAC520"/>
</svg>
