<svg width="20" height="20" viewBox="0 0 20 20" fill="none" xmlns="http://www.w3.org/2000/svg">
<path d="M10.0167 17.1081C8.07505 17.1081 6.13339 16.7998 4.29172 16.1831C3.59172 15.9414 3.05839 15.4498 2.82505 14.8081C2.58339 14.1664 2.66672 13.4581 3.05005 12.8248L4.00839 11.2331C4.20839 10.8998 4.39172 10.2331 4.39172 9.84144V7.43311C4.39172 4.33311 6.91672 1.80811 10.0167 1.80811C13.1167 1.80811 15.6417 4.33311 15.6417 7.43311V9.84144C15.6417 10.2248 15.8251 10.8998 16.0251 11.2414L16.9751 12.8248C17.3334 13.4248 17.4001 14.1498 17.1584 14.8081C16.9167 15.4664 16.3917 15.9664 15.7334 16.1831C13.9001 16.7998 11.9584 17.1081 10.0167 17.1081ZM10.0167 3.05811C7.60839 3.05811 5.64172 5.01644 5.64172 7.43311V9.84144C5.64172 10.4498 5.39172 11.3498 5.08339 11.8748L4.12505 13.4664C3.94172 13.7748 3.89172 14.0998 4.00005 14.3748C4.10005 14.6581 4.35005 14.8748 4.69172 14.9914C8.17505 16.1581 11.8667 16.1581 15.3501 14.9914C15.6501 14.8914 15.8834 14.6664 15.9917 14.3664C16.1001 14.0664 16.0751 13.7414 15.9084 13.4664L14.9501 11.8748C14.6334 11.3331 14.3917 10.4414 14.3917 9.83311V7.43311C14.3917 5.01644 12.4334 3.05811 10.0167 3.05811Z" fill="#131311"/>
<path d="M11.5667 3.2834C11.5084 3.2834 11.4501 3.27507 11.3917 3.2584C11.1501 3.19173 10.9167 3.14173 10.6917 3.1084C9.98339 3.01673 9.30005 3.06673 8.65839 3.2584C8.42505 3.3334 8.17505 3.2584 8.01672 3.0834C7.85839 2.9084 7.80839 2.6584 7.90005 2.4334C8.24172 1.5584 9.07505 0.983398 10.0251 0.983398C10.9751 0.983398 11.8084 1.55007 12.1501 2.4334C12.2334 2.6584 12.1917 2.9084 12.0334 3.0834C11.9084 3.21673 11.7334 3.2834 11.5667 3.2834Z" fill="#131311"/>
<path d="M10.0167 19.0083C9.19172 19.0083 8.39172 18.675 7.80839 18.0916C7.22506 17.5083 6.89172 16.7083 6.89172 15.8833H8.14172C8.14172 16.375 8.34172 16.8583 8.69172 17.2083C9.04172 17.5583 9.52506 17.7583 10.0167 17.7583C11.0501 17.7583 11.8917 16.9166 11.8917 15.8833H13.1417C13.1417 17.6083 11.7417 19.0083 10.0167 19.0083Z" fill="#131311"/>
</svg>
