<svg width="28" height="28" viewBox="0 0 28 28" fill="none" xmlns="http://www.w3.org/2000/svg">
<path d="M25.6666 24.7915H2.33325C1.85492 24.7915 1.45825 25.1882 1.45825 25.6665C1.45825 26.1448 1.85492 26.5415 2.33325 26.5415H25.6666C26.1449 26.5415 26.5416 26.1448 26.5416 25.6665C26.5416 25.1882 26.1449 24.7915 25.6666 24.7915Z" fill="#FAC520"/>
<path d="M19.8333 2.3335H8.16667C4.66667 2.3335 3.5 4.42183 3.5 7.00016V25.6668H24.5V7.00016C24.5 4.42183 23.3333 2.3335 19.8333 2.3335ZM11.6667 20.1252H8.16667C7.68833 20.1252 7.29167 19.7285 7.29167 19.2502C7.29167 18.7718 7.68833 18.3752 8.16667 18.3752H11.6667C12.145 18.3752 12.5417 18.7718 12.5417 19.2502C12.5417 19.7285 12.145 20.1252 11.6667 20.1252ZM11.6667 14.8752H8.16667C7.68833 14.8752 7.29167 14.4785 7.29167 14.0002C7.29167 13.5218 7.68833 13.1252 8.16667 13.1252H11.6667C12.145 13.1252 12.5417 13.5218 12.5417 14.0002C12.5417 14.4785 12.145 14.8752 11.6667 14.8752ZM11.6667 9.62516H8.16667C7.68833 9.62516 7.29167 9.2285 7.29167 8.75016C7.29167 8.27183 7.68833 7.87516 8.16667 7.87516H11.6667C12.145 7.87516 12.5417 8.27183 12.5417 8.75016C12.5417 9.2285 12.145 9.62516 11.6667 9.62516ZM19.8333 20.1252H16.3333C15.855 20.1252 15.4583 19.7285 15.4583 19.2502C15.4583 18.7718 15.855 18.3752 16.3333 18.3752H19.8333C20.3117 18.3752 20.7083 18.7718 20.7083 19.2502C20.7083 19.7285 20.3117 20.1252 19.8333 20.1252ZM19.8333 14.8752H16.3333C15.855 14.8752 15.4583 14.4785 15.4583 14.0002C15.4583 13.5218 15.855 13.1252 16.3333 13.1252H19.8333C20.3117 13.1252 20.7083 13.5218 20.7083 14.0002C20.7083 14.4785 20.3117 14.8752 19.8333 14.8752ZM19.8333 9.62516H16.3333C15.855 9.62516 15.4583 9.2285 15.4583 8.75016C15.4583 8.27183 15.855 7.87516 16.3333 7.87516H19.8333C20.3117 7.87516 20.7083 8.27183 20.7083 8.75016C20.7083 9.2285 20.3117 9.62516 19.8333 9.62516Z" fill="#FAC520"/>
</svg>
