<svg width="28" height="28" viewBox="0 0 28 28" fill="none" xmlns="http://www.w3.org/2000/svg">
<path d="M9.625 6.70801C9.14667 6.70801 8.75 6.31134 8.75 5.83301V2.33301C8.75 1.85467 9.14667 1.45801 9.625 1.45801C10.1033 1.45801 10.5 1.85467 10.5 2.33301V5.83301C10.5 6.31134 10.1033 6.70801 9.625 6.70801Z" fill="#FAC520"/>
<path d="M18.375 6.70801C17.8967 6.70801 17.5 6.31134 17.5 5.83301V2.33301C17.5 1.85467 17.8967 1.45801 18.375 1.45801C18.8533 1.45801 19.25 1.85467 19.25 2.33301V5.83301C19.25 6.31134 18.8533 6.70801 18.375 6.70801Z" fill="#FAC520"/>
<path d="M14 16.438C14.6066 16.438 15.05 16.0763 15.05 15.5047C15.05 14.9213 14.6066 14.583 14 14.583C13.3933 14.583 12.95 14.9213 12.95 15.5047C12.95 16.0763 13.3933 16.438 14 16.438Z" fill="#FAC520"/>
<path d="M13.9999 19.8331C14.7345 19.8331 15.3299 19.3473 15.3299 18.7481C15.3299 18.1489 14.7345 17.6631 13.9999 17.6631C13.2654 17.6631 12.6699 18.1489 12.6699 18.7481C12.6699 19.3473 13.2654 19.8331 13.9999 19.8331Z" fill="#FAC520"/>
<path d="M22.8317 5.24967C22.0617 4.67801 20.9534 5.22634 20.9534 6.19467V6.31134C20.9534 7.67634 19.9734 8.93634 18.6084 9.07634C17.0334 9.23968 15.7034 8.00301 15.7034 6.46301V5.24967C15.7034 4.60801 15.1784 4.08301 14.5367 4.08301H13.4634C12.8217 4.08301 12.2967 4.60801 12.2967 5.24967V6.46301C12.2967 7.38467 11.8184 8.20134 11.0951 8.65634C10.9901 8.72634 10.8734 8.78467 10.7567 8.84301C10.6517 8.90134 10.5351 8.94801 10.4067 8.98301C10.2667 9.02967 10.1151 9.06467 9.95175 9.07634C9.76508 9.09968 9.57841 9.09968 9.39175 9.07634C9.22841 9.06467 9.07675 9.02967 8.93675 8.98301C8.82008 8.94801 8.70341 8.90134 8.58675 8.84301C8.47008 8.78467 8.35341 8.72634 8.24841 8.65634C7.51341 8.14301 7.04675 7.25634 7.04675 6.31134V6.19467C7.04675 5.29634 6.09008 4.75967 5.33175 5.14467C5.32008 5.15634 5.30841 5.15634 5.29675 5.16801C5.25008 5.19134 5.21508 5.21467 5.16841 5.24967C5.13341 5.28467 5.08675 5.30801 5.05175 5.34301C4.72508 5.59967 4.43341 5.89134 4.18841 6.20634C4.06008 6.34634 3.95508 6.49801 3.86175 6.64967C3.85008 6.66134 3.83841 6.67301 3.82675 6.69634C3.72175 6.84801 3.62841 7.02301 3.54675 7.18634C3.52341 7.20967 3.51175 7.22134 3.51175 7.24467C3.44175 7.38467 3.37175 7.52467 3.32508 7.67634C3.29008 7.73467 3.27841 7.78134 3.25508 7.83967C3.18508 8.01467 3.13841 8.18967 3.09175 8.36468C3.04508 8.52801 3.01008 8.70301 2.98675 8.87801C2.96341 9.00634 2.95175 9.13467 2.94008 9.27467C2.92841 9.43801 2.91675 9.60134 2.91675 9.76467V19.9847C2.91675 23.123 5.46008 25.6663 8.59841 25.6663H19.4017C22.5401 25.6663 25.0834 23.123 25.0834 19.9847V9.76467C25.0834 7.90967 24.1967 6.28801 22.8317 5.24967ZM14.0001 21.2913C12.1917 21.2913 11.0834 20.393 11.0834 18.9463C11.0834 18.153 11.4917 17.4647 12.2034 17.0563C11.6901 16.6947 11.3517 16.158 11.3517 15.423C11.3517 13.9063 12.5651 13.1247 14.0001 13.1247C15.4351 13.1247 16.6367 13.9063 16.6367 15.423C16.6367 16.158 16.3101 16.6947 15.7851 17.0563C16.5084 17.4647 16.9167 18.153 16.9167 18.9463C16.9167 20.393 15.7967 21.2913 14.0001 21.2913Z" fill="#FAC520"/>
</svg>
