<svg width="28" height="28" viewBox="0 0 28 28" fill="none" xmlns="http://www.w3.org/2000/svg">
<path d="M25.2816 8.1083C24.5349 5.57664 22.4233 3.46497 19.8916 2.7183C17.9666 2.1583 16.6366 2.20497 15.7149 2.8933C14.6066 3.72164 14.4783 5.21497 14.4783 6.27664V9.18164C14.4783 12.0516 15.7849 13.51 18.3516 13.51H21.6999C22.7499 13.51 24.2549 13.3816 25.0833 12.2733C25.7949 11.3633 25.8533 10.0333 25.2816 8.1083Z" fill="#FAC520"/>
<path d="M22.0615 15.5868C21.7582 15.2368 21.3149 15.0385 20.8599 15.0385H16.6832C14.6299 15.0385 12.9615 13.3702 12.9615 11.3168V7.14017C12.9615 6.68517 12.7632 6.24184 12.4132 5.93851C12.0749 5.63518 11.6082 5.49518 11.1649 5.55351C8.42321 5.90351 5.90321 7.40851 4.25821 9.67184C2.60155 11.9468 1.99488 14.7235 2.51988 17.5002C3.27821 21.5135 6.48655 24.7218 10.5115 25.4802C11.1532 25.6085 11.7949 25.6668 12.4365 25.6668C14.5482 25.6668 16.5899 25.0135 18.3282 23.7418C20.5915 22.0968 22.0965 19.5768 22.4465 16.8352C22.5049 16.3802 22.3649 15.9252 22.0615 15.5868Z" fill="#FAC520"/>
</svg>
