<svg width="28" height="28" viewBox="0 0 28 28" fill="none" xmlns="http://www.w3.org/2000/svg">
<path d="M9.09995 25.8416C6.00828 25.8416 3.48828 23.3333 3.48828 20.2299V16.9166C3.48828 16.1349 4.25828 15.6099 4.99328 15.8666C5.29661 15.9716 5.59995 16.0416 5.91495 16.0883C6.05495 16.1116 6.19495 16.1349 6.33495 16.1349C6.50995 16.1583 6.69661 16.1699 6.87161 16.1699C8.16661 16.1699 9.44995 15.6916 10.4649 14.8633C11.4333 15.6916 12.6816 16.1699 14.0116 16.1699C15.3416 16.1699 16.5783 15.7149 17.5466 14.8749C18.5499 15.6916 19.8099 16.1699 21.0933 16.1699C21.2916 16.1699 21.5016 16.1583 21.6883 16.1349C21.8283 16.1233 21.9449 16.1116 22.0733 16.0883C22.4233 16.0416 22.7383 15.9483 23.0533 15.8433C23.7766 15.5983 24.5349 16.1349 24.5349 16.8933V20.2299C24.5349 23.3216 22.0266 25.8416 18.9233 25.8416H9.09995Z" fill="#FAC520"/>
<path d="M25.6433 10.0215L25.3167 6.9182C24.85 3.53487 23.31 2.1582 20.0317 2.1582H7.95666C4.66666 2.1582 3.13832 3.53487 2.65999 6.9532L2.35666 10.0332C2.23999 11.2349 2.56666 12.4015 3.27832 13.3115C4.12999 14.4199 5.43666 15.0499 6.89499 15.0499C8.30666 15.0499 9.65999 14.3382 10.5233 13.2065C11.2817 14.3382 12.5767 15.0499 14.0233 15.0499C15.47 15.0499 16.7417 14.3732 17.5117 13.2532C18.375 14.3615 19.7167 15.0499 21.105 15.0499C22.5983 15.0499 23.94 14.3849 24.78 13.2182C25.4567 12.3199 25.76 11.1882 25.6433 10.0215ZM15.75 9.0182H12.25C11.7717 9.0182 11.375 8.6332 11.375 8.1432C11.375 7.66487 11.7717 7.2682 12.25 7.2682H15.75C16.2283 7.2682 16.625 7.66487 16.625 8.1432C16.625 8.6332 16.2283 9.0182 15.75 9.0182Z" fill="#FAC520"/>
</svg>
