<svg width="28" height="28" viewBox="0 0 28 28" fill="none" xmlns="http://www.w3.org/2000/svg">
<path d="M19.425 4.50293H11.5616V8.02626C11.5616 8.48126 11.1883 8.84293 10.745 8.84293C10.3016 8.84293 9.92831 8.48126 9.92831 8.02626V4.50293H8.57497C3.96664 4.50293 2.44997 5.8796 2.34497 10.1846C2.33331 10.3946 2.42664 10.6163 2.57831 10.7679C2.72997 10.9313 2.92831 11.0129 3.16164 11.0129C4.79497 11.0129 6.13664 12.3663 6.13664 13.9996C6.13664 15.6329 4.79497 16.9863 3.16164 16.9863C2.93997 16.9863 2.72997 17.0679 2.57831 17.2313C2.42664 17.3829 2.33331 17.6046 2.34497 17.8146C2.44997 22.1196 3.96664 23.4963 8.57497 23.4963H9.92831V19.9729C9.92831 19.5179 10.3016 19.1563 10.745 19.1563C11.1883 19.1563 11.5616 19.5179 11.5616 19.9729V23.4963H19.425C24.2083 23.4963 25.6666 22.0379 25.6666 17.2546V10.7446C25.6666 5.96126 24.2083 4.50293 19.425 4.50293ZM21.5483 13.8829L20.4633 14.9329C20.4166 14.9679 20.405 15.0379 20.4166 15.0963L20.6733 16.5779C20.72 16.8463 20.615 17.1263 20.3816 17.2896C20.16 17.4529 19.8683 17.4763 19.6233 17.3479L18.2816 16.6479C18.235 16.6246 18.165 16.6246 18.1183 16.6479L16.7766 17.3479C16.6716 17.4063 16.555 17.4296 16.4383 17.4296C16.2866 17.4296 16.1466 17.3829 16.0183 17.2896C15.7966 17.1263 15.68 16.8579 15.7266 16.5779L15.9833 15.0963C15.995 15.0379 15.9716 14.9796 15.9366 14.9329L14.8516 13.8829C14.6533 13.6963 14.5833 13.4046 14.665 13.1479C14.7466 12.8796 14.9683 12.6929 15.2483 12.6579L16.7416 12.4363C16.8 12.4246 16.8466 12.3896 16.8816 12.3429L17.5466 10.9896C17.675 10.7446 17.92 10.5929 18.2 10.5929C18.48 10.5929 18.725 10.7446 18.8416 10.9896L19.5066 12.3429C19.53 12.4013 19.5766 12.4363 19.635 12.4363L21.1283 12.6579C21.4083 12.6929 21.63 12.8913 21.7116 13.1479C21.8166 13.4046 21.7466 13.6846 21.5483 13.8829Z" fill="#FAC520"/>
</svg>
